# xmcd
#
# Track frame offsets:
#	150
#	16531
#	36572
#	52479
#	69234
#	82700
#	99618
#	119280
#	129944
#	151097
#	165119
#	179539
#	195457
#	213913
#	228625
#	253448
#	274165
#	286545
#
# Disc length: 4068 seconds
#
# Revision: 1
# Processed by: cddbd v1.5.2PL0 Copyright (c) Steve Scherf et al.
# Submitted via: audiograbber 1.83.01
#
DISCID=ee0fe212
DTITLE=Bellamy Brothers - 40 Years (The Album)(CD 2)
DYEAR=2015
DGENRE=Country
TTITLE0=Dinosaur Wine
TTITLE1=Old Love Song
TTITLE2=Time Rocks On
TTITLE3=Dyin' Breed
TTITLE4=Livin' In Oblivion
TTITLE5=After The Storm
TTITLE6=Agave Blue
TTITLE7=Hippie Cowboys
TTITLE8=Heaven And Hell
TTITLE9=That's How U Roll When U Rock
TTITLE10=The Right To Be Wrong
TTITLE11=We Don't Call 911
TTITLE12=The Rock
TTITLE13=Together We Have It All
TTITLE14=Barb Wire Fence
TTITLE15=October Moon
TTITLE16=Jet Lag Journey
TTITLE17=Boobs
EXTD=
EXTT0=
EXTT1=
EXTT2=
EXTT3=
EXTT4=
EXTT5=
EXTT6=
EXTT7=
EXTT8=
EXTT9=
EXTT10=
EXTT11=
EXTT12=
EXTT13=
EXTT14=
EXTT15=
EXTT16=
EXTT17=
PLAYORDER=
